
<!-- Prompt: Create a beautiful blue robot waving hello -->
<svg version="1.1" xmlns="http://www.w3.org/2000/svg" style="display: block;" viewBox="0 0 2048 2048" width="1024" height="1024"><defs><linearGradient id="Gradient1" gradientUnits="userSpaceOnUse" x1="1197.39" y1="352.517" x2="1113.73" y2="395.715"><stop class="stop0" offset="0" stop-opacity="1" stop-color="rgb(9,136,198)"/><stop class="stop1" offset="1" stop-opacity="1" stop-color="rgb(36,184,236)"/></linearGradient><linearGradient id="Gradient2" gradientUnits="userSpaceOnUse" x1="1530.44" y1="873.425" x2="777.458" y2="630.214"><stop class="stop0" offset="0" stop-opacity="1" stop-color="rgb(16,148,206)"/><stop class="stop1" offset="1" stop-opacity="1" stop-color="rgb(31,177,230)"/></linearGradient><linearGradient id="Gradient3" gradientUnits="userSpaceOnUse" x1="1750.68" y1="1989.63" x2="1591.78" y2="1921.69"><stop class="stop0" offset="0" stop-opacity="1" stop-color="rgb(1,109,170)"/><stop class="stop1" offset="1" stop-opacity="1" stop-color="rgb(5,131,193)"/></linearGradient></defs><path transform="translate(0,0)" fill="rgb(255,252,231)" d="M 0 0 L 2048 0 L 2048 2048 L 1758.49 2048 L 1728.44 2048 L 1651 2048 L 1486.69 2048 L 1462.66 2048 L 1433.4 2048 L 1374.79 2048 L 1343.7 2048 L 1240.59 2048 L 1163.82 2048 L 975.129 2048 L 942.885 2048 L 914.048 2048 L 819.881 2048 L 766.103 2048 L 736.769 2048 L 0 2048 L 0 0 z"/><path transform="translate(0,0)" fill="rgb(0,49,87)" d="M 1156.74 224.015 C 1139.25 216.372 1125.72 205.882 1118.7 187.552 C 1112.73 171.976 1113.71 153.574 1120.35 138.362 C 1126.85 123.49 1139.5 111.171 1154.7 105.501 C 1169.8 99.8646 1187.25 100.284 1201.88 107.207 C 1217.01 114.552 1228.52 127.71 1233.79 143.683 C 1239.16 159.757 1237.88 177.312 1230.22 192.431 C 1222.44 207.765 1209.08 218.728 1192.69 223.777 C 1191.26 224.215 1189.82 224.624 1188.37 225.004 C 1186.95 258.524 1185.14 292.027 1182.93 325.505 C 1204.13 329.939 1221.81 340.071 1233.81 358.493 C 1239.32 366.94 1242.57 375.745 1244.95 385.485 C 1339.55 392.11 1444.61 417.023 1509.11 491.712 C 1550.7 539.875 1567.89 598.377 1566.9 661.312 C 1594.47 668.981 1616 687.412 1630 712.131 C 1653.74 754.046 1653.97 808.36 1641.05 853.699 C 1631.77 886.261 1612.47 919.135 1581.96 935.797 C 1568.76 943.007 1556.34 944.937 1541.54 946.47 C 1535.82 961.035 1531.39 975.635 1524.34 989.725 C 1501.84 1034.76 1461.67 1073.33 1415.5 1093.42 C 1355.52 1119.53 1292.04 1116.84 1228.3 1115.95 C 1227.5 1126.25 1225.91 1136.48 1223.56 1146.55 C 1281.1 1151.7 1395.13 1157.78 1443.98 1180.17 C 1465.08 1189.85 1483.47 1204.94 1500.51 1220.47 C 1533.99 1225.23 1564.81 1239.04 1585.62 1266.59 C 1599.98 1285.59 1608.34 1308.32 1612.7 1331.57 C 1706.08 1410.48 1758.51 1515.3 1768.63 1636.96 C 1774.16 1703.41 1768.59 1809.02 1740.75 1868.97 C 1766.75 1899.91 1774.72 1934.37 1771.38 1974.24 C 1769.32 1998.74 1764.44 2024.17 1758.49 2048 L 1728.44 2048 L 1651 2048 L 1486.69 2048 L 1462.66 2048 L 1433.4 2048 L 1374.79 2048 L 1343.7 2048 L 1240.59 2048 L 1163.82 2048 L 975.129 2048 L 942.885 2048 L 914.048 2048 L 819.881 2048 L 766.103 2048 L 736.769 2048 C 737.038 2027.62 737.456 2007.25 738.022 1986.88 C 738.954 1943.36 738.846 1895.64 772.502 1863.09 C 794.422 1841.89 818.555 1837.56 847.954 1838.21 C 844.91 1819.57 843.557 1801.11 842.373 1782.27 C 794.803 1774.06 743.247 1768.74 712.881 1725.99 C 665.825 1659.74 687.475 1514.85 688.123 1435.72 C 672.34 1424.8 660.335 1413.36 648.179 1398.57 C 625.472 1394.11 602.888 1391.08 580.546 1384.75 C 477.733 1355.64 384.247 1293.04 324.412 1203.83 C 256.938 1103.23 239.022 978.038 240.005 859.316 C 198.141 824.908 178.504 778.377 173.302 724.938 C 172.487 716.573 171.774 708.13 171.894 699.72 C 172.054 688.534 174.761 674.713 172.487 664.06 C 169.809 651.509 164.698 638.834 160.692 626.641 L 137.993 557.595 C 132.481 540.808 124.802 522.06 125.01 504.19 C 125.217 494.375 128.789 484.928 135.13 477.431 C 143.072 467.862 154.836 461.587 167.307 460.94 C 179.254 460.32 190.542 464.232 199.314 472.405 C 215.802 487.767 231.646 538.972 241.904 561.52 L 241.701 559.872 C 237.18 524.507 209.951 460.224 233.318 429.252 C 240.884 419.223 252.881 414.285 265.047 412.761 C 275.743 411.42 286.211 413.617 294.816 420.291 C 301.77 425.684 306.664 433.439 309.954 441.515 C 315.696 455.614 318.046 471.838 321.291 486.713 C 327.098 513.326 332.55 540.183 339.08 566.622 C 344.205 541.591 346.783 515.89 350.59 490.62 C 352.904 475.266 354.734 458.565 360.86 444.196 C 364.122 436.542 369 429.531 376.018 424.891 C 385.696 418.493 397.449 417.952 408.493 420.447 C 421.097 423.294 432.22 430.636 439.054 441.707 C 443.358 448.68 445.265 455.667 445.681 463.78 C 446.809 485.727 442.028 509.387 439.429 531.249 C 435.719 562.449 432.58 593.749 428.571 624.908 C 433.475 635.476 436.639 645.415 438.957 656.83 C 457.591 627.488 475.87 588.475 513.021 579.98 C 527.659 576.633 543.344 578.164 556.215 586.314 C 566.749 592.985 574.754 603.584 577.151 615.928 C 581.314 637.36 568.866 656.843 557.087 673.548 C 545.009 690.679 532.373 707.361 521.288 725.169 C 497.56 763.289 474.863 819.041 435.245 842.449 C 439.05 875.513 439.865 908.902 443.915 941.893 C 453.073 1016.49 487.181 1080.7 546.227 1127.78 C 580.802 1155.36 623.28 1175.25 665.65 1187.91 C 689.257 1163.19 717.735 1146.43 752.646 1145.81 C 765.412 1145.59 776.078 1148.27 787.96 1152.66 L 788.778 1152.4 C 801.568 1148.19 813.275 1141.89 826.472 1138.54 C 878.853 1125.27 936.424 1133.33 989.826 1134.33 C 988.692 1120.3 989.088 1106.18 991.006 1092.23 C 910.571 1085.01 807.713 1076.85 752.322 1009.99 C 718.734 969.442 709.789 908.956 711.236 857.803 C 680.497 842.98 662.232 827.085 650.815 793.962 C 636.075 751.197 642.717 695.665 662.504 655.533 C 673.875 632.472 691.96 611.146 716.984 602.746 C 722.214 600.95 727.671 599.903 733.194 599.635 C 752.425 524.177 792.957 451.875 861.612 411.295 C 927.758 372.198 995.654 372.818 1069.66 374.036 C 1079.41 352.558 1095.22 337.905 1117.37 329.466 C 1128.3 325.299 1140.22 323.14 1151.9 322.792 C 1152.66 289.961 1154.37 256.771 1156.74 224.015 z"/><path transform="translate(0,0)" fill="rgb(246,238,216)" d="M 1505.5 1498.57 C 1550.58 1541.37 1570.38 1605.15 1571.92 1665.88 C 1573.24 1717.65 1564.33 1775.15 1554.42 1825.81 C 1506.56 1847.84 1475.89 1884.06 1457.77 1933.28 C 1444.11 1970.38 1438.47 2008.97 1433.4 2048 L 1374.79 2048 C 1379.68 1995.39 1391.54 1926.46 1354.96 1882.34 C 1337.49 1861.28 1310.88 1849.55 1283.93 1847.24 C 1279.07 1846.83 1274.11 1846.86 1269.22 1846.91 C 1276.53 1830.64 1279.89 1814.6 1283.03 1797.17 C 1331.21 1794.72 1379.22 1787.48 1413.14 1749.56 C 1443.9 1715.18 1452.04 1665.12 1460.33 1621.23 C 1465.09 1596.35 1469.44 1571.4 1473.38 1546.38 C 1475.63 1532.56 1477.11 1518.03 1480.49 1504.46 C 1489.31 1503.63 1497.19 1501.64 1505.5 1498.57 z"/><path transform="translate(0,0)" fill="rgb(26,167,222)" d="M 1549.67 1860.15 C 1570.2 1845.59 1593.72 1842.7 1618.08 1842.86 C 1643.85 1858.51 1680.62 1870.44 1688 1903.54 C 1695.22 1935.91 1668.58 1962.64 1658.5 1991.22 C 1652.35 2008.66 1650.76 2029.62 1651 2048 L 1486.69 2048 L 1462.66 2048 C 1466.71 2020.18 1470.73 1992.37 1478 1965.17 C 1489.52 1922.08 1509.88 1883.15 1549.67 1860.15 z"/><path transform="translate(0,0)" fill="rgb(130,217,243)" d="M 1549.67 1860.15 C 1553.04 1861.86 1554.29 1861.56 1557.86 1860.41 C 1572.69 1855.62 1587.32 1853.14 1602.91 1855.4 C 1602.66 1855.65 1602.41 1855.91 1602.16 1856.16 C 1593.94 1864.11 1571.63 1870.37 1559.18 1880.2 C 1547.49 1889.43 1536.83 1899.62 1528.41 1911.98 C 1505.74 1945.27 1489.38 2007.5 1486.69 2048 L 1462.66 2048 C 1466.71 2020.18 1470.73 1992.37 1478 1965.17 C 1489.52 1922.08 1509.88 1883.15 1549.67 1860.15 z"/><path transform="translate(0,0)" fill="rgb(1,96,156)" d="M 1315.79 1889.68 C 1330.66 1897.94 1340.13 1914.08 1344.63 1930.04 C 1355.13 1967.32 1346.48 2010.1 1343.7 2048 L 1240.59 2048 C 1241.57 2007.74 1241.89 1961.81 1264.84 1927.11 C 1274.91 1911.88 1291.42 1894.65 1310.11 1891.2 C 1311.64 1890.91 1313.01 1890.69 1314.48 1890.16 C 1314.92 1890 1315.36 1889.84 1315.79 1889.68 z"/><path transform="translate(0,0)" fill="rgb(26,167,222)" d="M 1163.82 2048 C 1165.74 2012.22 1167.87 1967.36 1185.83 1935.82 C 1201.48 1908.34 1219.16 1888.83 1250.62 1880.55 C 1272.94 1874.67 1296.01 1878.17 1315.79 1889.68 C 1315.36 1889.84 1314.92 1890 1314.48 1890.16 C 1313.01 1890.69 1311.64 1890.91 1310.11 1891.2 C 1291.42 1894.65 1274.91 1911.88 1264.84 1927.11 C 1241.89 1961.81 1241.57 2007.74 1240.59 2048 L 1163.82 2048 z"/><path transform="translate(0,0)" fill="url(#Gradient3)" d="M 1618.08 1842.86 C 1650.04 1841.53 1687.53 1858.21 1710.85 1879.55 C 1730.12 1897.18 1741.64 1920.58 1742.7 1946.77 C 1743.98 1978.23 1735.41 2017.22 1728.44 2048 L 1651 2048 C 1650.76 2029.62 1652.35 2008.66 1658.5 1991.22 C 1668.58 1962.64 1695.22 1935.91 1688 1903.54 C 1680.62 1870.44 1643.85 1858.51 1618.08 1842.86 z"/><path transform="translate(0,0)" fill="rgb(26,167,222)" d="M 766.103 2048 C 766.338 2015.68 764.639 1944.35 772.062 1916.28 C 775.402 1903.65 781.612 1891.09 791.032 1881.88 C 805.049 1868.18 820.55 1865.74 839.265 1865.8 C 837.537 1872.37 835.84 1878.8 834.969 1885.54 C 829.546 1894.6 825.959 1903.41 823.659 1913.74 C 815.988 1948.19 818.57 2011.7 819.881 2048 L 766.103 2048 z"/><path transform="translate(0,0)" fill="rgb(1,96,156)" d="M 819.881 2048 C 818.57 2011.7 815.988 1948.19 823.659 1913.74 C 825.959 1903.41 829.546 1894.6 834.969 1885.54 C 835.236 1926.22 843.097 1966.67 873.083 1996.53 C 884.685 2008.08 898.646 2018.01 912.801 2026.2 C 913.339 2033.43 914.118 2040.75 914.048 2048 L 819.881 2048 z"/><path transform="translate(0,0)" fill="rgb(246,238,216)" d="M 942.885 2048 C 943.027 2045.23 942.582 2041.82 944.134 2039.52 C 954.586 2041.69 964.876 2045.04 975.129 2048 L 942.885 2048 z"/><path transform="translate(0,0)" fill="url(#Gradient2)" d="M 757.766 957.466 C 748.821 936.863 743.247 911.344 741.442 889.041 C 739.602 866.295 741.162 842.63 742.041 819.816 C 743.767 770.616 747.836 721.527 754.234 672.714 C 758.313 639.762 762.282 606.876 771.933 574.989 C 776.936 558.457 782.852 541.295 791.167 526.144 C 809.865 492.075 847.95 452.379 882.236 434.239 C 909.798 419.657 937.706 410.905 968.601 406.81 C 1028.67 398.849 1110.52 406.186 1171.87 410.6 C 1214.78 413.688 1258.32 415.901 1300.81 422.897 C 1318.65 425.835 1335.83 430.378 1353.11 435.65 C 1410.21 447.375 1468.99 483.258 1501.14 532.228 C 1526.38 570.677 1537.29 614.536 1536.54 660.184 C 1514.2 664.109 1497.06 676.602 1484.19 695.086 C 1453.33 739.376 1447.37 808.307 1457.14 860.077 C 1462.21 887.003 1473.15 914.088 1496.49 930.05 C 1501.24 933.296 1506.39 936.118 1511.43 938.879 C 1495.49 991.447 1459.26 1035.5 1410.76 1061.29 C 1378.33 1078.63 1341.63 1082.65 1305.38 1084.54 C 1243.46 1087.78 1180.04 1079.48 1118.33 1074.28 C 1054.51 1068.91 990.636 1063.86 927.394 1053.54 C 907.245 1050.25 887.451 1047.9 867.862 1041.83 C 824.524 1028.42 785.098 1010.83 763.063 968.682 C 761.148 965.02 759.455 961.236 757.766 957.466 z"/><path transform="translate(0,0)" fill="rgb(130,217,243)" d="M 757.766 957.466 C 748.821 936.863 743.247 911.344 741.442 889.041 C 739.602 866.295 741.162 842.63 742.041 819.816 C 743.767 770.616 747.836 721.527 754.234 672.714 C 758.313 639.762 762.282 606.876 771.933 574.989 C 776.936 558.457 782.852 541.295 791.167 526.144 C 809.865 492.075 847.95 452.379 882.236 434.239 C 909.798 419.657 937.706 410.905 968.601 406.81 C 1028.67 398.849 1110.52 406.186 1171.87 410.6 C 1214.78 413.688 1258.32 415.901 1300.81 422.897 C 1318.65 425.835 1335.83 430.378 1353.11 435.65 C 1358.75 439.763 1364.57 443.844 1369.88 448.376 C 1377.31 454.712 1410.7 486.667 1412.33 494.342 C 1411.68 494.5 1411.05 494.773 1410.38 494.817 C 1406.81 495.052 1398.92 490.581 1395.36 489.028 C 1383.46 483.819 1371.24 480.944 1359.15 476.427 C 1348.84 472.575 1338.83 467.632 1328.36 464.235 C 1322.39 462.299 1316.19 460.984 1310.01 459.918 C 1225.21 445.292 1139.11 439.371 1053.2 436.148 C 1020.24 434.912 985.184 432.089 952.478 436.857 C 958.369 438.654 965.225 439.81 968.554 445.563 C 970.122 448.273 970.157 450.745 969.152 453.663 C 966.148 462.381 951.866 469.391 943.675 472.6 C 936.78 475.301 930.017 476.802 922.63 477.269 C 918.418 478.956 910.081 478.33 905.275 478.619 C 899.545 475.856 895.496 472.369 890.83 468.14 C 869.52 481.419 857.098 497.453 839.975 514.813 C 834.441 520.423 826.656 523.506 820.848 528.871 C 800.886 547.31 791.48 580.005 785.561 605.556 C 777.414 640.724 774.473 677.116 771.005 712.991 C 765.098 774.084 760.683 836.213 758.976 897.575 C 758.668 908.634 758.445 920.038 759.724 931.034 C 760.635 938.865 764.68 948.747 763.961 956.366 C 761.892 956.709 759.827 957.076 757.766 957.466 z"/><path transform="translate(0,0)" fill="rgb(0,49,87)" d="M 1232.57 596.386 C 1258.6 594.297 1286.97 600.757 1308.23 616.248 C 1334.01 635.037 1350.55 666.284 1355.12 697.53 C 1360.99 737.652 1354.18 781.89 1329.34 814.806 C 1309.38 841.255 1281.72 857.058 1249.12 861.783 C 1247.97 861.979 1246.81 862.186 1245.65 862.326 C 1218.15 865.634 1188.92 858.74 1166.94 841.569 C 1140.5 820.918 1126.38 785.08 1122.75 752.528 C 1118.31 712.758 1128.41 670.545 1153.82 639.163 C 1173.88 614.386 1200.99 599.812 1232.57 596.386 z"/><path transform="translate(0,0)" fill="rgb(246,238,216)" d="M 1234.68 619.431 C 1255.97 617.678 1279.81 623.742 1297.1 636.368 C 1318.87 652.264 1330.16 676.863 1334.06 702.994 C 1338.94 735.656 1333.05 774.415 1312.95 801.352 C 1296.19 823.804 1271.77 837.657 1244.25 841.664 C 1220.77 843.985 1198.04 840.844 1179.32 825.494 C 1157.39 807.514 1145.98 777.61 1143.48 750.023 C 1140.38 715.915 1148.8 677.223 1171.24 650.594 C 1187.66 631.102 1209.58 621.413 1234.68 619.431 z"/><path transform="translate(0,0)" fill="rgb(0,49,87)" d="M 1253.28 680.241 C 1261.73 679.694 1269.06 679.537 1277.08 682.922 C 1289.12 687.999 1297.53 698.786 1302.13 710.746 C 1308.6 727.585 1307.15 748.62 1299.73 764.919 C 1293.11 779.439 1282.73 789.205 1267.65 794.716 C 1258.98 795.895 1251.77 795.687 1243.62 791.912 C 1232.49 786.756 1224.72 776.808 1220.44 765.505 C 1213.65 747.545 1214.77 725.875 1222.69 708.46 C 1229.16 694.231 1238.86 685.684 1253.28 680.241 z"/><path transform="translate(0,0)" fill="rgb(0,49,87)" d="M 902.751 574.347 C 928.575 571.639 953.899 576.261 974.571 592.735 C 999.35 612.483 1011.66 643.933 1014.82 674.743 C 1018.98 715.277 1011.2 760.959 984.749 793.2 C 967.231 814.549 944.317 825.136 917.241 827.846 C 891.963 829.568 866.859 824.947 845.936 810.005 C 822.47 793.247 809.093 766.967 804.695 738.883 C 798.424 698.838 804.713 651.522 829.269 618.311 C 847.815 593.227 872.107 579.045 902.751 574.347 z"/><path transform="translate(0,0)" fill="rgb(246,238,216)" d="M 901.589 594.236 C 921.981 592.668 939.987 594.299 957.071 606.553 C 978.773 622.119 989.892 648.295 993.876 673.997 C 999.134 707.919 992.64 747.758 971.996 775.841 C 958.674 793.963 941.079 803.541 919.078 806.892 C 897.597 809.893 875.764 804.873 857.751 792.792 C 838.614 779.721 828.419 759.123 824.284 736.793 C 817.971 702.694 823.212 661.113 843.309 632.153 C 857.564 611.613 877.113 598.818 901.589 594.236 z"/><path transform="translate(0,0)" fill="rgb(0,49,87)" d="M 932.309 647.199 C 938.884 646.696 945.585 648.563 951.326 651.718 C 962.481 657.846 969.379 669.394 972.976 681.285 C 978.529 699.641 975.898 720.182 966.8 736.977 C 959.92 749.679 949.934 758.641 936.039 762.879 C 927.405 764.342 918.745 763.073 911.25 758.331 C 900.348 751.434 894.484 738.585 892.131 726.281 C 888.393 706.737 891.835 682.407 903.462 665.912 C 910.951 655.289 919.675 649.556 932.309 647.199 z"/><path transform="translate(0,0)" fill="rgb(0,49,87)" d="M 937.741 871.077 C 956.953 869.402 992.597 883.347 1012.29 888.547 C 1028.78 892.901 1045.89 896.277 1062.89 897.668 C 1094.65 900.267 1127.04 896.326 1158.48 892.144 C 1171.12 890.461 1184.25 887.759 1196.95 887.25 C 1201.62 887.063 1207.54 886.924 1211.07 890.517 C 1214.74 894.263 1215.75 899.518 1215.51 904.589 C 1214.32 929.554 1197.17 952.812 1179.29 968.823 C 1176.01 971.511 1172.63 974.084 1169.17 976.537 C 1130.89 1003.25 1081.41 1012.41 1035.76 1003.97 C 1000.62 997.479 966.962 979.102 946.514 949.23 C 935.604 933.292 922.941 904.618 927.246 884.868 C 928.706 878.168 932.179 874.718 937.741 871.077 z"/><path transform="translate(0,0)" fill="rgb(3,118,180)" d="M 1033.82 982.892 C 1033.09 982.517 1032.24 982.119 1031.63 981.579 C 1029.47 979.672 1029.32 978.577 1028.87 975.904 C 1030.5 971.058 1034.55 968.703 1038.85 966.383 C 1061.32 954.284 1099.47 948.02 1124.13 955.92 C 1127.43 956.978 1131.3 959.041 1132.49 962.55 C 1133.79 966.419 1132.34 969.846 1130.32 973.092 C 1104.06 987.99 1069.33 992.908 1040 984.893 C 1037.91 984.326 1035.85 983.658 1033.82 982.892 z"/><path transform="translate(0,0)" fill="rgb(26,167,222)" d="M 1033.82 982.892 C 1050.41 977.597 1099.27 963.888 1114.28 964.299 C 1118.85 964.423 1121.75 964.705 1124.93 968.188 C 1126.18 969.561 1127.33 970.762 1128.8 971.912 L 1130.32 973.092 C 1104.06 987.99 1069.33 992.908 1040 984.893 C 1037.91 984.326 1035.85 983.658 1033.82 982.892 z"/><path transform="translate(0,0)" fill="rgb(0,49,87)" d="M 1236.87 547.25 C 1268.78 543.86 1301.33 554.534 1326.39 574.277 C 1334.26 580.474 1342.17 590.754 1342.94 601.102 C 1343.18 604.361 1342.39 606.151 1340.25 608.509 C 1337.12 609.257 1335.66 609.197 1332.53 608.416 C 1312.04 595.431 1289.31 579.565 1264.46 577.162 C 1254.15 576.166 1243.55 577.47 1233.32 576.167 C 1230.06 575.751 1227.58 574.929 1225.77 571.955 C 1224.28 569.503 1224.11 566.914 1224.64 564.163 C 1226.08 556.808 1230.8 551.249 1236.87 547.25 z"/><path transform="translate(0,0)" fill="rgb(0,49,87)" d="M 903.595 540.352 C 916.465 537.995 937.981 539.572 949.479 546.156 C 953.945 548.713 958.303 552.893 959.361 558.14 C 959.887 560.753 959.788 561.867 958.208 563.963 C 950.862 564.661 942.545 562.518 935.159 561.699 C 927.082 560.802 919.191 560.807 911.079 561.089 C 906.2 561.665 901.248 562.299 896.47 563.473 C 889.788 565.114 872.518 572.923 866.283 571.734 C 863.584 571.219 863.107 570.305 861.505 568.288 C 860.833 563.862 861.488 560.308 864.137 556.599 C 872.126 545.417 890.908 542.204 903.595 540.352 z"/><path transform="translate(0,0)" fill="rgb(26,167,222)" d="M 784.251 1740.56 C 768.67 1736.54 754.244 1728.79 743.371 1716.79 C 734.08 1706.54 726.726 1693.39 722.625 1680.19 C 718.941 1668.33 717.832 1655.35 716.397 1643.05 C 710.842 1595.45 711.295 1548.25 713.47 1500.46 L 718.731 1398.75 C 722.562 1328.93 724.032 1247.45 780 1196.88 C 815.426 1164.87 866.009 1158.79 911.874 1161.14 L 916.224 1160.83 C 942.29 1161.26 968.337 1163.02 994.403 1163.04 C 1003.09 1185.87 1015.26 1200.02 1037.77 1210.16 C 1072.71 1225.89 1140.64 1226.57 1175.87 1212.94 C 1195.95 1205.18 1207.39 1194.05 1216.41 1174.74 L 1302.77 1184.05 C 1347.03 1188.87 1394.65 1192.9 1436.79 1207.8 C 1416.48 1209.6 1403.33 1216.56 1386.08 1226.76 C 1345.34 1257.41 1331.93 1302.28 1325.06 1350.87 C 1319.46 1390.48 1317.83 1430.78 1314.63 1470.64 C 1309.46 1535.11 1302.95 1599.25 1291.82 1662.99 C 1287.62 1687.05 1284.56 1713.43 1275.12 1736 C 1269.67 1749.12 1260.85 1760.57 1249.54 1769.18 C 1239.61 1776.65 1227.64 1781.43 1215.39 1783.44 C 1196.63 1786.52 1176.08 1784.86 1157.08 1784.52 C 1084.91 1783.36 1012.9 1777.35 941.532 1766.52 L 842.878 1751.41 C 823.93 1748.48 802.332 1746.86 784.251 1740.56 z"/><path transform="translate(0,0)" fill="rgb(3,118,180)" d="M 916.224 1160.83 C 942.29 1161.26 968.337 1163.02 994.403 1163.04 C 1003.09 1185.87 1015.26 1200.02 1037.77 1210.16 C 1072.71 1225.89 1140.64 1226.57 1175.87 1212.94 C 1195.95 1205.18 1207.39 1194.05 1216.41 1174.74 L 1302.77 1184.05 C 1347.03 1188.87 1394.65 1192.9 1436.79 1207.8 C 1416.48 1209.6 1403.33 1216.56 1386.08 1226.76 C 1346.96 1216.55 1296.12 1230.11 1255.56 1233.91 C 1233.27 1236.01 1210.27 1238.13 1187.87 1238.02 C 1164.07 1237.91 1140.24 1235.4 1116.47 1234.11 C 1085.65 1232.42 1054.83 1232.04 1025.04 1222.9 C 989.895 1212.11 952.101 1202.2 926.596 1173.86 C 922.922 1169.78 918.807 1165.7 916.224 1160.83 z"/><path transform="translate(0,0)" fill="rgb(130,217,243)" d="M 784.251 1740.56 C 768.67 1736.54 754.244 1728.79 743.371 1716.79 C 734.08 1706.54 726.726 1693.39 722.625 1680.19 C 718.941 1668.33 717.832 1655.35 716.397 1643.05 C 710.842 1595.45 711.295 1548.25 713.47 1500.46 L 718.731 1398.75 C 722.562 1328.93 724.032 1247.45 780 1196.88 C 815.426 1164.87 866.009 1158.79 911.874 1161.14 C 911.469 1161.4 911.073 1161.67 910.658 1161.92 C 904.928 1165.3 881.314 1168.15 872.86 1170.45 C 817.317 1185.57 775.969 1221.06 758.408 1276.67 C 747.962 1309.75 746.749 1347.04 744.62 1381.47 C 742.478 1416.53 740.711 1451.6 739.319 1486.7 C 737.83 1517.77 736.671 1548.86 735.843 1579.96 C 735.143 1603.64 734.106 1627.51 735.847 1651.17 C 737.177 1669.23 739.209 1686.41 747.687 1702.7 C 756.577 1719.78 766.018 1725.29 781.39 1735.75 C 783.534 1737.2 785.01 1737.92 784.251 1740.56 z"/><path transform="translate(0,0)" fill="rgb(0,49,87)" d="M 845.686 1282.42 C 863.522 1281.59 882.432 1284.03 900.288 1285.29 L 1004.43 1293.22 L 1121.92 1302.02 C 1144.07 1303.66 1166.69 1304.58 1188.7 1307.57 C 1197.1 1308.71 1205.12 1310.25 1212.6 1314.48 C 1225.71 1321.88 1234.84 1334.39 1238.49 1348.92 C 1246.34 1380.2 1224.89 1587.38 1216.9 1627.3 C 1215.16 1636 1212.91 1645.49 1208.2 1653.11 C 1200.14 1666.15 1187.96 1671.52 1173.78 1675.16 C 1170.62 1675.69 1167.44 1676.1 1164.25 1676.39 C 1139.62 1678.46 1113.98 1675.65 1089.43 1673.59 C 1040.7 1669.37 992.092 1663.85 943.656 1657.06 C 904.888 1651.93 864.185 1648.74 826.4 1638.61 C 814.629 1635.46 802.45 1630.93 793.139 1622.83 C 783.552 1614.48 778.786 1603.31 777.758 1590.78 C 776.429 1574.58 776.943 1558.07 777.014 1541.82 C 777.355 1504.12 778.556 1466.43 780.617 1428.78 C 782.007 1399.98 782.813 1354.09 788.963 1327.06 C 791.245 1317.03 794.912 1308.77 801.755 1300.99 C 813.7 1287.42 828.514 1283.71 845.686 1282.42 z"/><path transform="translate(0,0)" fill="rgb(1,96,156)" d="M 846.203 1305.36 C 863.395 1304.02 881.174 1306.57 898.333 1307.93 L 972.521 1313.65 C 1013.12 1316.98 1053.74 1320.03 1094.39 1322.78 C 1120.95 1324.65 1147.72 1325.93 1174.21 1328.65 C 1180.85 1329.33 1188.07 1329.82 1194.35 1332.21 C 1203.49 1335.7 1210.49 1342.47 1214.05 1351.57 C 1216.94 1358.98 1217.07 1366.52 1217.09 1374.36 C 1217.16 1410.83 1200.58 1613.99 1190.93 1635.34 C 1187.06 1643.91 1179.58 1647.33 1171.25 1650.29 C 1138.33 1656.5 1085.47 1648.9 1051.45 1645.17 C 1012.77 1640.99 974.132 1636.36 935.556 1631.27 C 902.434 1626.98 865.003 1623.99 832.858 1616.06 C 825.143 1614.16 817.169 1611.26 810.468 1606.92 C 805.583 1603.76 802.153 1595.7 801.231 1590.12 C 798.772 1575.23 799.9 1558.33 800.217 1543.27 C 800.91 1513.28 802.091 1483.3 803.762 1453.35 C 805.508 1416.74 805.123 1378.32 810.587 1342.11 C 811.785 1334.18 813.412 1324.63 818.441 1318.17 C 825.212 1309.46 835.772 1306.56 846.203 1305.36 z"/><path transform="translate(0,0)" fill="rgb(130,217,243)" d="M 812.963 1218.31 C 890.657 1215.03 968.171 1226.15 1045.36 1233.24 C 1123.8 1240.44 1202.55 1244.51 1280.04 1259.64 C 1289.51 1261.49 1310.45 1265.59 1316.18 1274.12 L 1315.67 1275.86 C 1312.52 1276.67 1310.2 1276.63 1306.98 1276.29 C 1276.73 1274.27 1246.24 1270.08 1216 1267.34 L 896.996 1237.21 C 878.153 1235.47 859.285 1234.02 840.398 1232.85 C 830.049 1232.24 819.018 1232.65 808.795 1231.14 C 806.06 1230.73 804.115 1229.93 801.869 1228.35 C 801.493 1227.04 800.904 1226.39 801.68 1225.11 C 803.875 1221.49 809.033 1219.34 812.963 1218.31 z"/><path transform="translate(0,0)" fill="rgb(3,118,180)" d="M 1446.33 1227.12 L 1446.89 1227.28 L 1447.09 1228.11 C 1442.54 1231.01 1437.87 1233.69 1433.29 1236.55 C 1401.31 1256.61 1379.76 1291.85 1370.71 1327.9 C 1368.55 1336.52 1368.93 1345.72 1366.63 1354.2 C 1364 1363.87 1358.04 1372.42 1356.01 1382.37 C 1350.42 1409.71 1357.41 1441.13 1373.36 1463.85 C 1391.88 1490.22 1416.76 1502.49 1447.87 1508 C 1441.01 1563.65 1432.1 1621.2 1417.51 1675.36 C 1408.47 1708.96 1396.69 1733.1 1365.67 1750.93 C 1340.41 1763.85 1311.21 1766.55 1283.25 1767.33 C 1305.43 1722.18 1311.47 1668.11 1317.86 1618.7 C 1325.66 1558.41 1330.26 1497.93 1335.53 1437.4 C 1339.88 1387.56 1341.25 1320.74 1368.6 1277.62 C 1387.92 1247.16 1412.21 1234.81 1446.33 1227.12 z"/><path transform="translate(0,0)" fill="rgb(26,167,222)" d="M 1676.53 1547.78 C 1691.7 1545.65 1707.1 1545.61 1722.29 1547.68 C 1738.98 1607.85 1744.64 1670.55 1739 1732.73 C 1737.18 1754.03 1732.86 1775.37 1731.55 1796.58 C 1721.12 1786.51 1710.7 1779.51 1697.86 1772.85 C 1663.97 1758.31 1629.44 1759.86 1593.79 1765.79 C 1600.95 1705.93 1606.37 1639.73 1586.59 1581.67 C 1616.71 1561.97 1641.16 1553.09 1676.53 1547.78 z"/><path transform="translate(0,0)" fill="rgb(3,118,180)" d="M 1676.53 1547.78 C 1691.7 1545.65 1707.1 1545.61 1722.29 1547.68 C 1738.98 1607.85 1744.64 1670.55 1739 1732.73 C 1737.18 1754.03 1732.86 1775.37 1731.55 1796.58 C 1721.12 1786.51 1710.7 1779.51 1697.86 1772.85 C 1702.73 1721.4 1709.97 1611.68 1691.84 1565.38 C 1688.93 1557.94 1680.14 1555.95 1677.19 1549.4 C 1676.95 1548.87 1676.75 1548.32 1676.53 1547.78 z"/><path transform="translate(0,0)" fill="rgb(26,167,222)" d="M 1493.29 1443.15 C 1489.61 1437.5 1487.75 1430.77 1486.85 1424.11 C 1483.97 1402.95 1490.56 1381.2 1503.62 1364.47 C 1515 1349.89 1531.72 1338.04 1550.52 1336.2 C 1570.25 1334.28 1585.37 1345.56 1599.81 1357.23 C 1650.27 1401.1 1692.27 1460.74 1714.13 1524.2 C 1665.31 1522.08 1620.15 1532.69 1579.03 1559.65 C 1565.75 1530.8 1548.42 1503.99 1527.58 1480.02 C 1518.23 1469.12 1498.94 1455.56 1493.29 1443.15 z"/><path transform="translate(0,0)" fill="rgb(3,118,180)" d="M 1493.29 1443.15 C 1489.61 1437.5 1487.75 1430.77 1486.85 1424.11 C 1483.97 1402.95 1490.56 1381.2 1503.62 1364.47 C 1515 1349.89 1531.72 1338.04 1550.52 1336.2 C 1570.25 1334.28 1585.37 1345.56 1599.81 1357.23 C 1572.64 1360.78 1555.08 1365.2 1531.24 1379.55 C 1522.28 1384.94 1514.06 1390.39 1507.63 1398.81 C 1496.93 1412.85 1495.66 1426.36 1493.29 1443.15 z"/><path transform="translate(0,0)" fill="rgb(26,167,222)" d="M 291.454 938.218 C 337.194 942.933 370.862 934.859 411.8 914.33 C 416.849 968.337 425.645 1017.3 453.38 1064.96 C 431.538 1096.44 404.284 1122.19 365.206 1129.12 C 356.486 1130.66 345.314 1131.59 336.697 1129.44 C 329.9 1128.55 323.287 1127.08 316.603 1125.58 C 284.608 1067.01 273.873 997.349 269.346 931.624 C 276.675 934.113 283.94 936.357 291.454 938.218 z"/><path transform="translate(0,0)" fill="rgb(130,217,243)" d="M 269.346 931.624 C 276.675 934.113 283.94 936.357 291.454 938.218 C 295.457 981.754 300.051 1029.15 313.363 1070.94 C 316.86 1081.65 320.782 1092.22 325.119 1102.62 C 328.497 1110.53 335.486 1121.22 336.697 1129.44 C 329.9 1128.55 323.287 1127.08 316.603 1125.58 C 284.608 1067.01 273.873 997.349 269.346 931.624 z"/><path transform="translate(0,0)" fill="rgb(26,167,222)" d="M 323.729 628.874 C 337.893 627.196 366.495 624.648 379.934 627.484 C 385.577 628.639 390.871 631.098 395.395 634.663 C 406.176 643.179 410.104 655.894 414.019 668.445 C 389.267 674.74 367.45 687.469 353.971 709.862 C 338.438 735.668 335.353 778.014 341.406 807.068 C 341.838 808.633 342.15 810.131 342.441 811.725 C 340.542 813.455 337.966 813.825 335.555 814.509 C 305.304 823.09 283.507 822.74 254.93 807.857 C 248.556 804.537 242.809 800.094 236.484 796.722 C 234.214 795.512 234.202 795.05 231.633 795.896 C 230.615 794.31 230.199 791.999 229.64 790.185 C 225.932 792.714 225.086 793.478 223.46 797.794 C 221.969 795.164 220.537 792.501 219.166 789.807 C 202.979 757.675 193.864 699.864 205.483 665.368 C 232.831 641.084 287.502 630.491 323.729 628.874 z"/><path transform="translate(0,0)" fill="rgb(130,217,243)" d="M 205.483 665.368 C 232.831 641.084 287.502 630.491 323.729 628.874 C 334.186 628.869 346.273 628.458 356.17 632.212 L 357.548 633.746 C 356.398 635.183 355.052 636.379 353.796 637.723 C 351.553 640.125 348.096 640.88 344.974 641.447 C 335.343 643.193 325.093 643.059 315.33 643.986 C 296.526 645.771 278.223 649.071 259.634 652.292 C 253.029 653.437 246.115 653.892 239.682 655.791 C 235.288 657.089 230.978 659.213 227.571 662.31 C 222.73 666.711 221.917 672.907 221.681 679.165 C 221.308 689.104 222.664 699.102 222.891 709.043 C 223.501 735.627 221.942 764.446 229.64 790.185 C 225.932 792.714 225.086 793.478 223.46 797.794 C 221.969 795.164 220.537 792.501 219.166 789.807 C 202.979 757.675 193.864 699.864 205.483 665.368 z"/><path transform="translate(0,0)" fill="rgb(26,167,222)" d="M 466.541 1086.67 C 493.81 1124.99 529.179 1156.84 570.138 1179.96 C 558.052 1209.41 540.591 1238.79 518.097 1261.53 C 502.614 1278.71 485.953 1291.4 464.506 1300.13 C 418.738 1273.46 365.872 1220.37 340.565 1173.79 C 335.002 1166.11 330.075 1158 325.833 1149.53 C 363.963 1155.67 398.307 1147.87 429.755 1124.93 C 444.345 1114.29 455.726 1101.01 466.541 1086.67 z"/><path transform="translate(0,0)" fill="rgb(3,118,180)" d="M 340.565 1173.79 L 341.931 1174.43 C 346.696 1176.62 351.953 1178.98 357.258 1177.13 C 367.755 1173.47 369.742 1156.24 381.827 1159.91 C 394.72 1170.6 406.197 1187.29 419.374 1199.41 C 448.466 1226.18 483.882 1242.7 518.097 1261.53 C 502.614 1278.71 485.953 1291.4 464.506 1300.13 C 418.738 1273.46 365.872 1220.37 340.565 1173.79 z"/><path transform="translate(0,0)" fill="rgb(3,118,180)" d="M 867.615 1870.36 C 874.037 1874.38 880.574 1878.22 887.216 1881.86 C 972.917 1928.63 1061.11 1941.94 1155 1914.24 C 1144 1936.44 1130.55 1957.26 1120.07 1979.78 C 1112.9 1994.14 1107.64 2009.44 1102.16 2024.49 C 1065.35 2027.26 1027.01 2027.5 990.681 2020.27 C 948.341 2011.84 909.021 1998.93 883.961 1960.92 C 866.714 1934.75 861.197 1900.74 867.615 1870.36 z"/><path transform="translate(0,0)" fill="rgb(1,96,156)" d="M 868.738 1784.45 C 885.694 1789.14 903.878 1791.75 921.165 1795.15 C 1002.07 1811.04 1081.99 1818.34 1164.44 1816.28 C 1182.84 1815.82 1201.33 1815.55 1219.69 1813.98 C 1228.7 1811.31 1245.6 1802.53 1254.13 1803.32 C 1254.94 1805.33 1254.89 1805.66 1254.52 1807.81 C 1247.71 1829.15 1238.87 1842.08 1218.54 1852.5 C 1207.97 1857.92 1196.82 1862.46 1185.94 1867.24 C 1156.62 1877.27 1136.01 1885.26 1104.04 1888.73 C 1044.48 1895.18 961.315 1886.58 907.398 1859.5 C 895.704 1853.63 885.493 1846.28 875.325 1838.1 C 873.951 1831.15 873.476 1823.85 872.677 1816.8 C 870.936 1806.07 870.808 1795.2 868.738 1784.45 z"/><path transform="translate(0,0)" fill="rgb(3,118,180)" d="M 872.677 1816.8 C 873 1814.45 872.806 1811.5 874.463 1809.78 C 876.554 1809.7 877.408 1810.21 879.157 1811.18 C 886.44 1815.23 895.084 1815.05 902.795 1817.93 C 922.399 1825.24 943.006 1829.76 963.396 1834.34 C 1011.66 1845.2 1061.56 1854.02 1111.09 1855.76 C 1142.36 1856.86 1173.47 1854.99 1204.7 1854.87 C 1197.22 1858.06 1190.45 1860.05 1185.94 1867.24 C 1156.62 1877.27 1136.01 1885.26 1104.04 1888.73 C 1044.48 1895.18 961.315 1886.58 907.398 1859.5 C 895.704 1853.63 885.493 1846.28 875.325 1838.1 C 873.951 1831.15 873.476 1823.85 872.677 1816.8 z"/><path transform="translate(0,0)" fill="rgb(0,66,114)" d="M 1219.69 1813.98 C 1228.7 1811.31 1245.6 1802.53 1254.13 1803.32 C 1254.94 1805.33 1254.89 1805.66 1254.52 1807.81 C 1253.13 1807.64 1252.78 1807.35 1251.53 1808.05 C 1242.38 1813.15 1230.01 1814.48 1219.69 1813.98 z"/><path transform="translate(0,0)" fill="rgb(3,118,180)" d="M 1460.18 1257.18 C 1484.19 1248.23 1508.39 1248.46 1531.87 1259.11 C 1553 1268.7 1567.25 1288.19 1575.86 1309.3 C 1544.51 1306.57 1523.24 1308.52 1498.03 1329.56 C 1474.9 1348.85 1460.55 1376.67 1458.24 1406.7 C 1456.5 1428.23 1461.12 1452.34 1475.73 1468.94 C 1477.64 1471.13 1479.64 1473.24 1481.72 1475.28 C 1456.02 1471.81 1435.7 1463.79 1419.56 1442.4 C 1399.5 1415.83 1391.94 1376.62 1396.86 1344.08 C 1398.23 1334.84 1400.69 1325.8 1404.18 1317.15 C 1415.7 1288.6 1431.62 1269.56 1460.18 1257.18 z"/><path transform="translate(0,0)" fill="rgb(26,167,222)" d="M 1460.18 1257.18 C 1471.38 1264.97 1478.63 1260.83 1486.94 1275.28 C 1487.5 1293.02 1480.91 1311.47 1468.56 1324.52 C 1461.8 1331.66 1453.67 1336.85 1443.52 1336.61 C 1437.02 1336.46 1408.64 1322.43 1404.18 1317.15 C 1415.7 1288.6 1431.62 1269.56 1460.18 1257.18 z"/><path transform="translate(0,0)" fill="rgb(26,167,222)" d="M 453.458 683.551 C 461.851 690.458 468.756 696.784 474.837 705.829 C 479.764 713.572 483.979 721.746 487.43 730.25 C 470.488 758.25 454.932 793.592 428.133 813.617 C 419.908 819.762 410.41 824.161 401.098 828.375 C 386.859 834.818 372.265 840.238 357.054 843.92 C 326.111 851.41 283.212 852.695 255.025 835.372 C 246.239 829.972 235.96 819.284 231.563 809.87 C 228.51 805.943 225.876 802.164 223.46 797.794 C 225.086 793.478 225.932 792.714 229.64 790.185 C 230.199 791.999 230.615 794.31 231.633 795.896 C 234.202 795.05 234.214 795.512 236.484 796.722 C 242.809 800.094 248.556 804.537 254.93 807.857 C 283.507 822.74 305.304 823.09 335.555 814.509 C 337.966 813.825 340.542 813.455 342.441 811.725 C 342.15 810.131 341.838 808.633 341.406 807.068 C 347.767 805.268 353.508 804.524 360.094 805.353 C 359.786 789.055 358.996 772.757 360.937 756.522 C 364.373 727.792 378.409 697.909 410.249 692.871 C 429.219 689.869 435.706 697.516 453.458 683.551 z"/><path transform="translate(0,0)" fill="rgb(3,118,180)" d="M 474.837 705.829 C 479.764 713.572 483.979 721.746 487.43 730.25 C 470.488 758.25 454.932 793.592 428.133 813.617 C 419.908 819.762 410.41 824.161 401.098 828.375 C 386.859 834.818 372.265 840.238 357.054 843.92 C 326.111 851.41 283.212 852.695 255.025 835.372 C 246.239 829.972 235.96 819.284 231.563 809.87 C 228.51 805.943 225.876 802.164 223.46 797.794 C 225.086 793.478 225.932 792.714 229.64 790.185 C 230.199 791.999 230.615 794.31 231.633 795.896 C 234.202 795.05 234.214 795.512 236.484 796.722 C 242.809 800.094 248.556 804.537 254.93 807.857 C 283.507 822.74 305.304 823.09 335.555 814.509 C 337.966 813.825 340.542 813.455 342.441 811.725 C 342.15 810.131 341.838 808.633 341.406 807.068 C 347.767 805.268 353.508 804.524 360.094 805.353 C 371.326 804.48 382.485 798.569 393.493 796.079 C 400.628 794.465 408.478 795.601 415.421 793.2 C 444.439 783.163 462.75 731.745 474.837 705.829 z"/><path transform="translate(0,0)" fill="rgb(26,167,222)" d="M 229.64 790.185 C 230.199 791.999 230.615 794.31 231.633 795.896 C 232.164 800.711 232.642 805.088 231.563 809.87 C 228.51 805.943 225.876 802.164 223.46 797.794 C 225.086 793.478 225.932 792.714 229.64 790.185 z"/><path transform="translate(0,0)" fill="rgb(3,118,180)" d="M 591.818 1190.85 C 609.901 1199.31 628.262 1206.14 647.264 1212.25 C 631.123 1241.84 621.692 1271.85 621.926 1305.9 C 622.292 1327.96 626.923 1347.84 633.454 1368.74 C 582.881 1356.29 532.939 1340.57 487.292 1315.01 C 508.868 1304.09 526.132 1288.99 542.451 1271.32 C 563.495 1246.69 578.741 1220.4 591.818 1190.85 z"/><path transform="translate(0,0)" fill="rgb(26,167,222)" d="M 591.818 1190.85 C 609.901 1199.31 628.262 1206.14 647.264 1212.25 C 631.123 1241.84 621.692 1271.85 621.926 1305.9 C 591.246 1302.15 570.518 1280.56 542.451 1271.32 C 563.495 1246.69 578.741 1220.4 591.818 1190.85 z"/><path transform="translate(0,0)" fill="rgb(0,66,114)" d="M 1018.68 1109.95 L 1019.07 1098.43 C 1060.12 1107.73 1100.54 1112.17 1142.49 1114.87 C 1160.9 1116.05 1179.47 1117.41 1197.92 1117.11 L 1199.98 1116.25 C 1202.92 1121.5 1195.93 1149.44 1193.99 1156.5 C 1191.72 1164.79 1188.23 1172.69 1181.02 1177.75 C 1170.27 1185.93 1158.88 1189.2 1145.69 1191.07 C 1116.33 1195.23 1058.67 1195.97 1034.75 1177.24 C 1022.56 1167.7 1020.13 1150.24 1018.61 1135.82 C 1017.46 1127.85 1018.2 1118 1018.68 1109.95 z"/><path transform="translate(0,0)" fill="rgb(3,118,180)" d="M 1018.61 1135.82 C 1022.43 1135.52 1040.29 1144.84 1046.46 1146.57 C 1070.91 1153.44 1096.02 1157.25 1121.45 1156.69 C 1137.74 1156.28 1153.95 1154.33 1169.87 1150.84 C 1176.63 1149.3 1183.39 1146.7 1190.21 1145.61 C 1192.37 1145.27 1192.94 1144.82 1194.68 1146.31 C 1193.36 1159.75 1185.25 1167.19 1181.02 1177.75 C 1170.27 1185.93 1158.88 1189.2 1145.69 1191.07 C 1116.33 1195.23 1058.67 1195.97 1034.75 1177.24 C 1022.56 1167.7 1020.13 1150.24 1018.61 1135.82 z"/><path transform="translate(0,0)" fill="rgb(3,118,180)" d="M 1018.68 1109.95 L 1019.07 1098.43 C 1060.12 1107.73 1100.54 1112.17 1142.49 1114.87 C 1160.9 1116.05 1179.47 1117.41 1197.92 1117.11 C 1191.95 1121.04 1184.22 1123.33 1177.42 1125.43 C 1138.18 1137.55 1087.55 1135.93 1048.73 1123.35 C 1038.13 1119.91 1028.51 1115.08 1018.68 1109.95 z"/><path transform="translate(0,0)" fill="rgb(3,118,180)" d="M 1589.16 722.243 C 1594.67 722.099 1598.38 722.409 1602.76 726.02 C 1614.64 735.815 1619.12 758.241 1620.46 772.896 C 1623.66 808.059 1613.81 865.589 1590.04 893.188 C 1586.9 896.833 1585.4 898.607 1580.5 898.982 C 1578.1 897.786 1575.62 896.602 1573.35 895.172 C 1558.78 885.992 1550.78 866.585 1547.52 850.397 C 1540.79 816.999 1544.69 767.623 1564.34 738.752 C 1570.8 729.264 1577.99 724.404 1589.16 722.243 z"/><path transform="translate(0,0)" fill="rgb(0,49,87)" d="M 1583.33 749.224 L 1585.73 749.124 C 1589.72 748.978 1592.42 748.868 1595.39 751.894 C 1604.42 761.112 1603.69 782.549 1603.31 794.566 C 1602.73 813.136 1599.25 840.45 1585.05 853.853 C 1583.38 854.2 1581.71 854.337 1580.01 854.511 C 1577.56 853.646 1575.88 852.873 1574.19 850.835 C 1565.28 840.125 1566.2 815.615 1566.96 802.488 C 1567.86 786.857 1571.02 760.16 1583.33 749.224 z"/><path transform="translate(0,0)" fill="rgb(1,96,156)" d="M 689.772 1399.49 C 687.338 1397.44 685.003 1395.27 682.776 1393 C 659.999 1369.73 651.201 1334.18 651.539 1302.43 C 651.932 1265.42 663.475 1229.61 690.64 1203.48 C 711.094 1183.8 734.014 1174.51 762.367 1174.91 C 745.813 1188.98 733.797 1207.69 722.816 1226.22 C 711.984 1248.86 704.97 1271.93 699.852 1296.43 L 699.657 1300.19 C 692.018 1328.43 693.925 1369.23 689.772 1399.49 z"/><path transform="translate(0,0)" fill="rgb(3,118,180)" d="M 669.33 1285.12 C 667.77 1283.89 666.616 1280.5 665.871 1278.65 C 661.085 1266.81 664.76 1252.27 669.791 1241.02 C 674.37 1230.77 683.502 1216.41 694.507 1212.68 C 706.38 1208.66 711.819 1221.11 721.005 1225.42 C 721.603 1225.7 722.212 1225.95 722.816 1226.22 C 711.984 1248.86 704.97 1271.93 699.852 1296.43 C 687.889 1301.11 679.424 1288.34 669.33 1285.12 z"/><path transform="translate(0,0)" fill="rgb(3,118,180)" d="M 669.588 726.293 C 671.233 702.185 677.527 678.361 690.038 657.519 C 699.53 641.705 711.272 632.671 729.289 628.222 C 726.268 645.567 723.532 662.959 721.08 680.394 C 719.848 698.051 717.809 715.631 716.533 733.282 C 714.246 765.551 712.554 797.86 711.457 830.192 C 690.466 817.161 677.289 799.305 671.665 775.025 C 668.301 760.503 667.369 741.09 669.588 726.293 z"/><path transform="translate(0,0)" fill="rgb(26,167,222)" d="M 669.588 726.293 C 671.233 702.185 677.527 678.361 690.038 657.519 C 699.53 641.705 711.272 632.671 729.289 628.222 C 726.268 645.567 723.532 662.959 721.08 680.394 L 720.513 681.686 C 713.334 698.302 711.814 726.048 692.338 733.759 C 687.747 735.577 681.693 736.055 677.113 733.963 C 673.969 732.528 670.762 729.534 669.588 726.293 z"/><path transform="translate(0,0)" fill="rgb(26,167,222)" d="M 1482.94 797.282 C 1484.57 772.042 1489.05 747.629 1500.16 724.735 C 1507.09 710.461 1516.11 695.305 1532.17 690.199 C 1550.1 684.496 1568.54 690.906 1584.29 699.409 C 1577.53 700.247 1571.39 701.588 1565.47 705.095 C 1543.04 718.372 1533.03 752.076 1527.42 775.733 C 1526.34 782.793 1525.15 789.858 1524.35 796.954 C 1519.48 797.022 1515.11 797.644 1510.35 798.556 C 1508.29 799.938 1505.76 801.16 1503.37 801.8 C 1495.9 803.799 1489.26 801.067 1482.94 797.282 z"/><path transform="translate(0,0)" fill="rgb(12,144,205)" d="M 1510.35 798.556 C 1515.99 791.197 1520.01 781.504 1527.42 775.733 C 1526.34 782.793 1525.15 789.858 1524.35 796.954 C 1519.48 797.022 1515.11 797.644 1510.35 798.556 z"/><path transform="translate(0,0)" fill="rgb(3,118,180)" d="M 287.885 878.245 C 338.771 881.937 361.666 877.102 408.218 857.34 C 409.06 866.545 409.877 875.761 409.991 885.009 C 405.257 889.163 399.722 894.123 393.809 896.435 C 361.498 914.472 327.53 920.001 290.953 914.709 C 283.455 912.873 276.301 909.76 269.14 906.913 C 268.547 896.145 267.976 885.474 268.235 874.684 C 274.761 876.135 281.209 877.685 287.885 878.245 z"/><path transform="translate(0,0)" fill="rgb(26,167,222)" d="M 268.235 874.684 C 274.761 876.135 281.209 877.685 287.885 878.245 L 289.313 879.897 L 289.082 880.979 C 290.013 884.037 290.061 885.306 293.02 886.721 C 309.385 894.545 333.009 898.511 351.126 898.829 C 358.396 898.956 390.259 894.846 393.809 896.435 C 361.498 914.472 327.53 920.001 290.953 914.709 C 283.455 912.873 276.301 909.76 269.14 906.913 C 268.547 896.145 267.976 885.474 268.235 874.684 z"/><path transform="translate(0,0)" fill="rgb(130,217,243)" d="M 268.235 874.684 C 274.761 876.135 281.209 877.685 287.885 878.245 L 289.313 879.897 L 289.082 880.979 C 289.12 892.171 289.948 903.564 290.953 914.709 C 283.455 912.873 276.301 909.76 269.14 906.913 C 268.547 896.145 267.976 885.474 268.235 874.684 z"/><path transform="translate(0,0)" fill="rgb(26,167,222)" d="M 466.059 666.913 C 475.77 644.531 490.257 616.277 514.697 607.153 C 524.544 603.477 533.276 604.003 542.722 608.334 C 547.069 612.335 550.427 615.51 550.799 621.698 C 551.144 627.444 548.813 633.583 546.329 638.664 C 539.728 652.164 529.616 664.516 521.127 676.942 C 514.157 687.145 507.732 698.07 500.273 707.888 C 497.839 702.89 495.391 697.948 492.665 693.101 C 484.699 682.885 475.962 675.138 466.059 666.913 z"/><path transform="translate(0,0)" fill="rgb(3,118,180)" d="M 542.722 608.334 C 547.069 612.335 550.427 615.51 550.799 621.698 C 551.144 627.444 548.813 633.583 546.329 638.664 C 539.728 652.164 529.616 664.516 521.127 676.942 C 514.157 687.145 507.732 698.07 500.273 707.888 C 497.839 702.89 495.391 697.948 492.665 693.101 C 501.118 676.525 531.739 618.556 542.722 608.334 z"/><path transform="translate(0,0)" fill="rgb(3,118,180)" d="M 1510.35 798.556 C 1515.11 797.644 1519.48 797.022 1524.35 796.954 C 1523.33 810.848 1522.75 824.603 1524.12 838.501 C 1526.98 867.325 1536.92 895.109 1559.69 913.782 C 1553.88 915.251 1547.67 916.493 1541.65 916.318 C 1528.13 915.922 1514.96 910.59 1505.74 900.55 C 1481.97 874.658 1481.23 830.125 1482.94 797.282 C 1489.26 801.067 1495.9 803.799 1503.37 801.8 C 1505.76 801.16 1508.29 799.938 1510.35 798.556 z"/><path transform="translate(0,0)" fill="rgb(3,118,180)" d="M 1588.75 1789.51 C 1606.71 1784.9 1627.85 1783.32 1646.32 1784.81 C 1664.32 1785.44 1681.13 1789.8 1697.15 1798.01 C 1708.39 1804.11 1717.89 1812.97 1724.75 1823.77 C 1723.04 1832.32 1720.65 1840.41 1717.99 1848.71 C 1675.25 1820.45 1635.65 1809.66 1584.45 1816.32 C 1585.27 1807.38 1587.24 1798.37 1588.75 1789.51 z"/><path transform="translate(0,0)" fill="rgb(26,167,222)" d="M 1646.32 1784.81 C 1664.32 1785.44 1681.13 1789.8 1697.15 1798.01 L 1696.44 1810.02 C 1687.7 1806.42 1679.65 1801.37 1670.91 1797.84 C 1664.77 1795.36 1640.64 1789.86 1638.03 1785.61 L 1646.32 1784.81 z"/><path transform="translate(0,0)" fill="rgb(3,118,180)" d="M 1160.71 133.463 C 1168.13 129.353 1176.91 127.12 1185.28 129.483 C 1194.12 131.977 1201.28 138.749 1205.44 146.792 C 1209.92 155.453 1210.98 165.287 1208 174.607 C 1205.26 183.194 1199.53 190.315 1191.49 194.474 C 1183.25 198.738 1171.74 200.45 1162.81 197.471 C 1157.08 195.559 1152.6 191.863 1149.3 186.862 C 1149.03 186.502 1148.74 186.149 1148.48 185.782 C 1142.81 177.975 1141.12 167.177 1142.72 157.846 C 1142.86 157.241 1143 156.633 1143.16 156.029 C 1145.91 145.142 1151.31 139.109 1160.71 133.463 z"/><path transform="translate(0,0)" fill="rgb(130,217,243)" d="M 1160.71 133.463 C 1170.97 133.634 1177.04 133.477 1184.69 140.968 C 1185.96 151.253 1186.25 159.803 1179.69 168.661 C 1176.15 173.441 1171.21 176.601 1165.25 177.212 C 1158.96 177.856 1154.38 175.721 1148.93 172.863 C 1146.21 167.99 1144.49 163.115 1142.72 157.846 C 1142.86 157.241 1143 156.633 1143.16 156.029 C 1145.91 145.142 1151.31 139.109 1160.71 133.463 z"/><path transform="translate(0,0)" fill="rgb(26,167,222)" d="M 1184.69 140.968 C 1190.96 147.294 1192.45 155.354 1192.31 163.996 C 1192.27 166.99 1191.99 170.07 1191.57 173.03 L 1192.9 175.204 L 1197.42 175.896 C 1197.97 177.12 1198.54 177.575 1198.06 178.958 C 1195.98 184.901 1184.16 189.837 1178.51 192.006 C 1175.06 193.33 1171.84 193.552 1168.18 193.611 C 1169.51 194.382 1170.08 194.569 1171.66 194.636 C 1173.78 194.725 1175.47 195.116 1177.54 195.606 L 1176.55 195.931 L 1179.14 196.128 L 1179.14 196.417 C 1177.48 197.456 1166.66 196.508 1164.11 196.51 C 1158.76 193.808 1154.9 188.801 1149.3 186.862 C 1149.03 186.502 1148.74 186.149 1148.48 185.782 C 1142.81 177.975 1141.12 167.177 1142.72 157.846 C 1144.49 163.115 1146.21 167.99 1148.93 172.863 C 1154.38 175.721 1158.96 177.856 1165.25 177.212 C 1171.21 176.601 1176.15 173.441 1179.69 168.661 C 1186.25 159.803 1185.96 151.253 1184.69 140.968 z"/><path transform="translate(0,0)" fill="rgb(12,144,205)" d="M 1168.18 193.611 C 1163.09 192.389 1157.7 191.36 1153.96 187.462 L 1154.56 185.913 C 1158.08 188.512 1160.79 191.069 1165.38 191.001 C 1176.29 190.84 1184.63 180.317 1191.57 173.03 L 1192.9 175.204 L 1197.42 175.896 C 1197.97 177.12 1198.54 177.575 1198.06 178.958 C 1195.98 184.901 1184.16 189.837 1178.51 192.006 C 1175.06 193.33 1171.84 193.552 1168.18 193.611 z"/><path transform="translate(0,0)" fill="rgb(26,167,222)" d="M 268.986 438.14 C 271.869 438.083 274.877 438.26 277.463 439.644 C 290.187 446.456 297.749 502.061 301.688 517.454 C 293.676 518.071 285.847 519.208 277.919 520.501 L 260.676 524.675 C 256.471 507.293 243.418 463.173 252.055 448.536 C 255.982 441.88 261.794 439.809 268.986 438.14 z"/><path transform="translate(0,0)" fill="rgb(26,167,222)" d="M 393.742 445.096 C 395.665 445.01 397.55 444.959 399.475 445.075 C 405.414 445.43 410.714 446.792 414.677 451.518 C 417.264 454.602 418.484 458.542 418.867 462.496 C 420.329 477.601 414.917 506.619 413.563 523.125 L 402.386 520.135 C 392.343 517.898 382.769 516.982 372.48 516.677 C 374.671 498.907 376.839 475.912 382.462 459.194 C 384.78 452.303 387.175 448.322 393.742 445.096 z"/><path transform="translate(0,0)" fill="rgb(26,167,222)" d="M 167.79 487.032 C 171.002 486.947 174.117 487.112 177.083 488.495 C 190.999 494.986 202.038 533.277 207.677 547.625 C 199.641 550.299 192.063 553.244 184.501 557.078 C 179.351 559.763 174.428 563.182 169.509 566.283 C 164.79 553.176 160.278 539.995 155.974 526.746 C 152.987 517.414 148.704 504.853 153.958 495.631 C 156.977 490.333 162.315 488.748 167.79 487.032 z"/><path transform="translate(0,0)" fill="rgb(26,167,222)" d="M 369.194 538.987 C 383.579 540.541 397.287 542.533 411.269 546.463 C 408.73 560.753 408.095 575.725 406.392 590.18 L 404.725 607.663 C 398.874 605.003 393.061 602.045 386.811 600.451 C 378.292 598.662 369.25 598.573 360.571 598.014 C 361.975 578.406 366.157 558.428 369.194 538.987 z"/><path transform="translate(0,0)" fill="rgb(3,118,180)" d="M 386.811 600.451 C 391.171 599.163 393.954 597.733 397.447 594.806 C 400.805 591.993 401.964 590.372 406.392 590.18 L 404.725 607.663 C 398.874 605.003 393.061 602.045 386.811 600.451 z"/><path transform="translate(0,0)" fill="url(#Gradient1)" d="M 1150.41 347.301 C 1159.32 345.809 1169.52 346.709 1178.1 349.379 C 1195.28 354.72 1206.14 365.418 1214.36 381.155 C 1198.27 380.947 1182.11 379.59 1166.02 378.924 C 1143.67 377.017 1121.07 375.804 1098.66 374.814 C 1112.8 359.311 1129.78 350.563 1150.41 347.301 z"/><path transform="translate(0,0)" fill="rgb(26,167,222)" d="M 300.22 541.396 C 302.472 541.067 303.948 540.633 306.03 541.725 C 310.931 550.442 317.513 588.693 320.182 600.708 C 309.384 601.398 298.436 602.802 287.76 604.522 C 284.515 604.967 282.474 605.826 279.505 604.326 C 272.927 586.822 270.17 566.216 265.834 547.936 C 277.144 545.022 288.63 542.838 300.22 541.396 z"/><path transform="translate(0,0)" fill="rgb(26,167,222)" d="M 216.001 571.064 C 220.565 575.175 231.034 609.651 233.939 617.95 C 219.008 622.462 207.497 627.983 194.798 637.093 L 193.791 637.644 C 190.269 635.334 179.533 596.444 177.513 590.135 C 189.289 581.495 202.268 575.792 216.001 571.064 z"/><path transform="translate(0,0)" fill="rgb(246,238,216)" d="M 1654.97 199.425 C 1655.35 199.391 1655.73 199.35 1656.1 199.323 C 1708.44 195.649 1788.63 214.546 1828.72 249.196 C 1869.41 284.371 1885.38 322.142 1889.13 375.084 C 1890.46 393.962 1890.16 413.206 1887.11 431.913 C 1868.43 546.878 1769.3 709.017 1693.19 796.543 C 1691.05 759.377 1685.96 719.32 1673.44 684.242 C 1663.63 659.959 1650.33 633.162 1631.49 614.575 C 1624.8 607.979 1615.84 603.27 1610.35 595.526 C 1605.62 588.832 1602.62 579.744 1599.07 572.311 C 1593.72 561.098 1587.93 549.992 1582 539.068 C 1549.58 479.295 1503.69 425.008 1445.17 389.592 C 1428.83 379.699 1411.48 371.219 1394.07 363.37 C 1381.8 357.839 1342.83 343.413 1334.94 336.529 C 1331.85 333.842 1328.29 329.314 1328.43 324.959 C 1328.52 322.01 1329.57 319.731 1331.57 317.616 C 1337.96 310.882 1372.04 298.082 1382.34 293.357 C 1406.8 282.131 1430.88 270.2 1455.59 259.481 C 1478.37 249.599 1501.3 241.056 1524.51 232.332 C 1569.06 215.593 1606.84 202.135 1654.97 199.425 z"/><path transform="translate(0,0)" fill="rgb(246,238,216)" d="M 304.999 1266.59 C 309.289 1268.8 313.836 1273.79 317.521 1276.99 C 335.033 1292.22 351.135 1309.2 369.225 1323.74 C 435.615 1376.84 511.94 1416.15 593.724 1439.37 C 610.292 1444.25 627.47 1449.81 644.556 1452.47 C 646.173 1474.86 643.01 1498.7 641.829 1521.12 C 640.227 1551.54 639.932 1581.98 636.817 1612.31 C 628.182 1620.1 616.938 1625.87 607.001 1631.84 C 574.327 1651.46 540.231 1671.72 504.428 1685.01 C 471.291 1698.03 438.294 1708.46 403.08 1714.22 C 353.049 1722.4 295.914 1718.45 253.711 1687.78 C 218.511 1662.2 202.513 1625 196.005 1582.8 C 186.163 1518.99 207.609 1452.6 231.411 1394.12 C 239.207 1374.96 247.398 1355.4 257.507 1337.34 C 271.462 1312.41 288.198 1289.64 304.999 1266.59 z"/><path transform="translate(0,0)" fill="rgb(246,238,216)" d="M 1821.77 800.242 C 1822.44 800.189 1823.11 800.127 1823.79 800.082 C 1834.36 799.381 1843.89 804.516 1851.6 811.394 C 1867.89 825.927 1874.66 851.825 1875.78 872.969 C 1879.5 942.85 1841.6 1028.5 1805.68 1087.13 C 1794.2 1105.86 1780.69 1123.69 1767.78 1141.46 C 1752.85 1161.99 1737.64 1182.38 1720.53 1201.18 C 1704.87 1218.28 1688.76 1234.96 1672.19 1251.18 C 1666.48 1256.74 1660.84 1263.05 1654.31 1267.64 C 1651.07 1269.91 1648.14 1271.6 1644.15 1271.79 C 1637.45 1264.93 1633.36 1255.09 1628.34 1246.99 C 1623.42 1239.05 1617.74 1231.66 1611.84 1224.43 C 1591.86 1201.72 1563.7 1182.84 1537.45 1168.01 C 1527.02 1162.11 1515.28 1157.44 1505.74 1150.19 C 1506.8 1147.07 1507.92 1143.91 1509.65 1141.1 C 1517.08 1128.98 1529.23 1118.12 1538.6 1107.36 C 1556.68 1086.35 1574.64 1065.22 1592.48 1044 L 1687.84 929.059 C 1712.54 899.254 1737.11 869.051 1764.66 841.794 C 1780.77 825.85 1798.97 805.342 1821.77 800.242 z"/><path transform="translate(0,0)" fill="rgb(246,238,216)" d="M 647.667 961.681 C 657.633 964.813 673.888 1000.51 681.035 1010.34 C 697.276 1032.67 718.933 1051.89 737.19 1072.68 C 714.428 1093.31 694.003 1124.55 665.266 1137.06 L 647.093 1127.77 C 620.228 1115.11 570.026 1083.15 552.997 1059.75 C 550.296 1056.04 548.794 1051.93 547.257 1047.65 C 559.445 1035.63 572.803 1024.45 585.659 1013.13 C 605.776 995.42 625.968 977.437 647.667 961.681 z"/><path transform="translate(0,0)" fill="rgb(246,238,216)" d="M 745.745 315.424 C 748.134 315.322 750.568 315.003 752.819 315.966 C 754.243 316.574 754.213 317.478 754.766 318.796 C 753.769 323.863 751.061 327.52 747.545 331.183 C 733.151 346.179 714.9 357.84 699.048 371.326 C 671.268 394.959 644.573 419.851 616.026 442.601 C 606.726 450.013 596.97 458.43 586.634 464.354 C 578.417 469.063 570.457 470.936 561.096 471.194 C 559.659 470.444 558.317 469.666 557.045 468.651 C 553.434 465.772 551.406 461.378 550.923 456.847 C 549.454 443.087 559.664 428.649 568.134 418.62 C 603.126 377.19 691.345 320.238 745.745 315.424 z"/><text x="2033" y="2028" font-family="Arial, Helvetica, sans-serif" font-size="28" font-weight="bold" fill="grey" opacity="0.9" text-anchor="end" dominant-baseline="alphabetic" data-watermark-text="svgmaker" text-shadow="0 1px 2px rgba(0,0,0,0.5)" stroke="rgba(0,0,0,0.3)" stroke-width="0.5" pointer-events="none" style="user-select: none; -webkit-user-select: none; -moz-user-select: none; -ms-user-select: none;">SVGMaker</text></svg>